<svg id="visual" viewBox="0 0 900 600" width="900" height="600" xmlns="http://www.w3.org/2000/svg" xmlns:xlink="http://www.w3.org/1999/xlink" version="1.1"><path d="M868 600L867.3 585.7C866.7 571.3 865.3 542.7 866.2 514.2C867 485.7 870 457.3 864.3 428.8C858.7 400.3 844.3 371.7 840.5 343C836.7 314.3 843.3 285.7 849 257C854.7 228.3 859.3 199.7 862.5 171.2C865.7 142.7 867.3 114.3 864.7 85.8C862 57.3 855 28.7 851.5 14.3L848 0L900 0L900 14.3C900 28.7 900 57.3 900 85.8C900 114.3 900 142.7 900 171.2C900 199.7 900 228.3 900 257C900 285.7 900 314.3 900 343C900 371.7 900 400.3 900 428.8C900 457.3 900 485.7 900 514.2C900 542.7 900 571.3 900 585.7L900 600Z" fill="#6c63ff" stroke-linecap="round" stroke-linejoin="miter"></path></svg>